<svg viewBox="0 0 13.3334 10.6666" xmlns="http://www.w3.org/2000/svg" xmlns:xlink="http://www.w3.org/1999/xlink" width="13.333374" height="10.666626" fill="none" customFrame="#000000">
	<path id="Vector" d="M12 6.68453e-08C12.3364 -0.000106386 12.6604 0.126938 12.907 0.355665C13.1537 0.584392 13.3048 0.897896 13.33 1.23333L13.3333 1.33333L13.3333 9.33333C13.3334 9.66972 13.2064 9.99371 12.9777 10.2404C12.7489 10.487 12.4354 10.6381 12.1 10.6633L12 10.6667L1.33333 10.6667C0.996949 10.6668 0.672956 10.5397 0.426301 10.311C0.179647 10.0823 0.0285623 9.76877 0.00333348 9.43333L6.68453e-08 9.33333L6.68453e-08 1.33333C-0.000106386 0.996949 0.126938 0.672956 0.355665 0.426301C0.584392 0.179647 0.897896 0.0285623 1.23333 0.00333348L1.33333 6.68453e-08L12 6.68453e-08ZM12 2.276L7.37333 6.90267C7.18583 7.08993 6.93167 7.19512 6.66667 7.19512C6.40167 7.19512 6.1475 7.08993 5.96 6.90267L1.33333 2.276L1.33333 9.33333L12 9.33333L12 2.276ZM11.0573 1.33333L2.276 1.33333L6.66667 5.724L11.0573 1.33333Z" fill="rgb(61,34,13)" fill-rule="nonzero" />
</svg>
