<svg viewBox="0 0 12.859 11.7928" xmlns="http://www.w3.org/2000/svg" xmlns:xlink="http://www.w3.org/1999/xlink" width="12.859009" height="11.792847" fill="none" customFrame="#000000">
	<path id="Vector" d="M1.09615 10.4595L1.09615 3.19286L0.0628206 0.959524C-0.0149572 0.792857 -0.0205128 0.623302 0.0461538 0.450857C0.11282 0.278413 0.229487 0.153524 0.396154 0.0761905C0.562821 -0.00114287 0.732376 -0.00936506 0.904821 0.0515238C1.07727 0.112413 1.20215 0.226191 1.27949 0.392857L2.56282 3.15952L10.2962 3.15952L11.5795 0.392857C11.6573 0.226191 11.7824 0.109524 11.9548 0.0428572C12.1273 -0.0238095 12.2966 -0.0126984 12.4628 0.0761905C12.6295 0.153968 12.7462 0.279079 12.8128 0.451524C12.8795 0.623968 12.8739 0.793302 12.7962 0.959524L11.7628 3.19286L11.7628 10.4595C11.7628 10.8262 11.6324 11.1402 11.3715 11.4015C11.1106 11.6629 10.7966 11.7933 10.4295 11.7929L2.42949 11.7929C2.06282 11.7929 1.74904 11.6624 1.48815 11.4015C1.22726 11.1406 1.0966 10.8266 1.09615 10.4595ZM5.09615 7.12619L7.76282 7.12619C7.95171 7.12619 8.11015 7.06219 8.23815 6.93419C8.36615 6.80619 8.42993 6.64797 8.42949 6.45952C8.42904 6.27108 8.36504 6.11286 8.23749 5.98486C8.10993 5.85686 7.95171 5.79286 7.76282 5.79286L5.09615 5.79286C4.90727 5.79286 4.74904 5.85686 4.62149 5.98486C4.49393 6.11286 4.42993 6.27108 4.42949 6.45952C4.42904 6.64797 4.49304 6.80641 4.62149 6.93486C4.74993 7.0633 4.90815 7.12708 5.09615 7.12619ZM2.42949 10.4595L10.4295 10.4595L10.4295 4.49286L2.42949 4.49286L2.42949 10.4595Z" fill="rgb(61,34,13)" fill-rule="nonzero" />
</svg>
