<svg viewBox="0 0 12 12.0016" xmlns="http://www.w3.org/2000/svg" xmlns:xlink="http://www.w3.org/1999/xlink" width="12.000000" height="12.001587" fill="none" customFrame="#000000">
	<path id="Vector" d="M8.66667 8C9.53733 8 10.2787 8.55667 10.5533 9.33333L11.3333 9.33333C11.5101 9.33333 11.6797 9.40357 11.8047 9.52859C11.9298 9.65362 12 9.82319 12 10C12 10.1768 11.9298 10.3464 11.8047 10.4714C11.6797 10.5964 11.5101 10.6667 11.3333 10.6667L10.5533 10.6667C10.4156 11.057 10.1602 11.395 9.82227 11.6341C9.48436 11.8732 9.08061 12.0016 8.66667 12.0016C8.25272 12.0016 7.84897 11.8732 7.51107 11.6341C7.17316 11.395 6.91774 11.057 6.78 10.6667L0.666667 10.6667C0.489856 10.6667 0.320286 10.5964 0.195262 10.4714C0.0702379 10.3464 2.96059e-16 10.1768 0 10C0 9.82319 0.0702379 9.65362 0.195262 9.52859C0.320286 9.40357 0.489856 9.33333 0.666667 9.33333L6.78 9.33333C6.91792 8.94323 7.17344 8.6055 7.51135 8.3667C7.84925 8.1279 8.2529 7.99978 8.66667 8ZM8.66667 9.33333C8.48986 9.33333 8.32029 9.40357 8.19526 9.52859C8.07024 9.65362 8 9.82319 8 10C8 10.1768 8.07024 10.3464 8.19526 10.4714C8.32029 10.5964 8.48986 10.6667 8.66667 10.6667C8.84348 10.6667 9.01305 10.5964 9.13807 10.4714C9.2631 10.3464 9.33333 10.1768 9.33333 10C9.33333 9.82319 9.2631 9.65362 9.13807 9.52859C9.01305 9.40357 8.84348 9.33333 8.66667 9.33333ZM3.33333 4C3.72599 3.99995 4.10998 4.11548 4.43742 4.33219C4.76486 4.54891 5.02127 4.85721 5.17467 5.21867L5.21933 5.33333L11.3333 5.33333C11.5033 5.33352 11.6667 5.39859 11.7902 5.51523C11.9138 5.63188 11.9882 5.7913 11.9981 5.96093C12.0081 6.13056 11.9529 6.29759 11.8438 6.42789C11.7348 6.55819 11.5801 6.64193 11.4113 6.662L11.3333 6.66667L5.22 6.66667C5.0856 7.04686 4.83945 7.37756 4.51382 7.61542C4.18819 7.85327 3.79829 7.98718 3.39523 7.99957C2.99218 8.01197 2.59478 7.90228 2.25515 7.68489C1.91552 7.46749 1.64951 7.15254 1.492 6.78133L1.44667 6.66667L0.666667 6.66667C0.496747 6.66648 0.333312 6.60141 0.209754 6.48477C0.0861971 6.36812 0.0118433 6.2087 0.00188526 6.03907C-0.00807283 5.86944 0.0471164 5.70241 0.156177 5.57211C0.265237 5.44181 0.419936 5.35807 0.588667 5.338L0.666667 5.33333L1.44667 5.33333C1.58459 4.94323 1.84011 4.6055 2.17801 4.3667C2.51592 4.1279 2.91957 3.99978 3.33333 4ZM3.33333 5.33333C3.15652 5.33333 2.98695 5.40357 2.86193 5.5286C2.7369 5.65362 2.66667 5.82319 2.66667 6C2.66667 6.17681 2.7369 6.34638 2.86193 6.4714C2.98695 6.59643 3.15652 6.66667 3.33333 6.66667C3.51014 6.66667 3.67971 6.59643 3.80474 6.4714C3.92976 6.34638 4 6.17681 4 6C4 5.82319 3.92976 5.65362 3.80474 5.5286C3.67971 5.40357 3.51014 5.33333 3.33333 5.33333ZM8.66667 2.74982e-07C9.53733 2.74982e-07 10.2787 0.556667 10.5533 1.33333L11.3333 1.33333C11.5101 1.33333 11.6797 1.40357 11.8047 1.5286C11.9298 1.65362 12 1.82319 12 2C12 2.17681 11.9298 2.34638 11.8047 2.4714C11.6797 2.59643 11.5101 2.66667 11.3333 2.66667L10.5533 2.66667C10.4156 3.05702 10.1602 3.39504 9.82227 3.63414C9.48436 3.87324 9.08061 4.00163 8.66667 4.00163C8.25272 4.00163 7.84897 3.87324 7.51107 3.63414C7.17316 3.39504 6.91774 3.05702 6.78 2.66667L0.666667 2.66667C0.489856 2.66667 0.320286 2.59643 0.195262 2.4714C0.0702379 2.34638 2.96059e-16 2.17681 0 2C0 1.82319 0.0702379 1.65362 0.195262 1.5286C0.320286 1.40357 0.489856 1.33333 0.666667 1.33333L6.78 1.33333C6.91792 0.943229 7.17344 0.605505 7.51135 0.366704C7.84925 0.127904 8.2529 -0.00021664 8.66667 2.74982e-07ZM8.66667 1.33333C8.48986 1.33333 8.32029 1.40357 8.19526 1.5286C8.07024 1.65362 8 1.82319 8 2C8 2.17681 8.07024 2.34638 8.19526 2.4714C8.32029 2.59643 8.48986 2.66667 8.66667 2.66667C8.84348 2.66667 9.01305 2.59643 9.13807 2.4714C9.2631 2.34638 9.33333 2.17681 9.33333 2C9.33333 1.82319 9.2631 1.65362 9.13807 1.5286C9.01305 1.40357 8.84348 1.33333 8.66667 1.33333Z" fill="rgb(61,34,13)" fill-rule="evenodd" />
</svg>
