<svg viewBox="0 0 12.9398 12.9402" xmlns="http://www.w3.org/2000/svg" xmlns:xlink="http://www.w3.org/1999/xlink" width="12.939819" height="12.940186" fill="none" customFrame="#000000">
	<path id="Vector" d="M2.93096 0.334658C3.74928 0.00690284 4.64367 -0.0824466 5.51065 0.0769487C6.37763 0.236344 7.18175 0.637968 7.82998 1.23535C8.47821 1.83273 8.94403 2.60145 9.17356 3.45255C9.40309 4.30365 9.38693 5.20235 9.12696 6.04466L12.0563 8.52332C12.3202 8.74756 12.5347 9.02403 12.6864 9.33531C12.8381 9.6466 12.9237 9.98593 12.9377 10.3319C12.9517 10.6779 12.8939 11.0231 12.7679 11.3456C12.6419 11.6681 12.4504 11.9611 12.2056 12.2059C11.9607 12.4508 11.6678 12.6422 11.3452 12.7683C11.0227 12.8943 10.6776 12.9521 10.3316 12.9381C9.98557 12.924 9.64623 12.8385 9.33495 12.6868C9.02367 12.5351 8.7472 12.3205 8.52296 12.0567L6.04496 9.12733C5.20258 9.38738 4.30378 9.40357 3.45258 9.17403C2.60139 8.94448 1.83259 8.47858 1.23518 7.83025C0.637768 7.18192 0.236166 6.37767 0.0768521 5.51058C-0.0824614 4.64349 0.00702798 3.749 0.334963 2.93066C0.57363 2.33466 1.32163 2.25933 1.7103 2.68199L3.84563 5.00066L4.80963 4.80866L5.00296 3.84266L2.68296 1.71066C2.2603 1.32199 2.3343 0.573325 2.93096 0.334658ZM4.26896 1.35866L6.11096 3.05199C6.32563 3.24932 6.42163 3.54399 6.3643 3.82866L6.05096 5.39799C6.01868 5.55949 5.93927 5.70781 5.82275 5.82421C5.70623 5.94061 5.55783 6.01987 5.3963 6.05199L3.82963 6.36332C3.68942 6.39121 3.54439 6.38255 3.40849 6.33818C3.27259 6.29382 3.15038 6.21523 3.05363 6.10999L1.35763 4.26866C1.28859 4.84209 1.36968 5.42362 1.59295 5.95629C1.81621 6.48896 2.174 6.95451 2.63127 7.30735C3.08854 7.66018 3.62962 7.88819 4.2015 7.96906C4.77338 8.04993 5.35646 7.98087 5.89363 7.76866C6.05659 7.70431 6.23559 7.69254 6.40558 7.73497C6.57557 7.77741 6.72803 7.87194 6.84163 8.00533L9.54163 11.196C9.64634 11.3202 9.77573 11.4214 9.92158 11.493C10.0674 11.5647 10.2266 11.6052 10.3889 11.6121C10.5513 11.6191 10.7133 11.5922 10.8647 11.5332C11.0161 11.4742 11.1536 11.3845 11.2685 11.2696C11.3834 11.1546 11.4732 11.0171 11.5322 10.8657C11.5912 10.7143 11.618 10.5523 11.6111 10.3899C11.6042 10.2276 11.5636 10.0685 11.492 9.92261C11.4204 9.77675 11.3192 9.64737 11.195 9.54266L8.00496 6.84266C7.87158 6.72906 7.77705 6.5766 7.73461 6.40661C7.69217 6.23662 7.70395 6.05762 7.7683 5.89466C7.98093 5.35749 8.05029 4.77428 7.9696 4.20223C7.8889 3.63017 7.66091 3.08891 7.30799 2.63152C6.95507 2.17413 6.48933 1.81632 5.95644 1.59318C5.42356 1.37004 4.84183 1.28922 4.2683 1.35866L4.26896 1.35866Z" fill="rgb(61,34,13)" fill-rule="evenodd" />
</svg>
