<svg viewBox="0 0 20.0063 16" xmlns="http://www.w3.org/2000/svg" xmlns:xlink="http://www.w3.org/1999/xlink" width="20.006348" height="16.000000" fill="none" customFrame="#000000">
	<path id="Vector" d="M15 0C15.5304 8.88178e-16 16.0391 0.210714 16.4142 0.585786C16.7893 0.960859 17 1.46957 17 2L17 4.035C17.8771 4.15997 18.6742 4.61292 19.2304 5.30249C19.7867 5.99206 20.0608 6.86693 19.9973 7.75062C19.9339 8.63431 19.5377 9.46106 18.8886 10.0641C18.2396 10.6671 17.386 11.0016 16.5 11L15.712 11C14.9225 12.2626 13.8166 13.2968 12.504 14L15 14C15.2652 14 15.5196 14.1054 15.7071 14.2929C15.8946 14.4804 16 14.7348 16 15C16 15.2652 15.8946 15.5196 15.7071 15.7071C15.5196 15.8946 15.2652 16 15 16L2 16C1.73478 16 1.48043 15.8946 1.29289 15.7071C1.10536 15.5196 1 15.2652 1 15C1 14.7348 1.10536 14.4804 1.29289 14.2929C1.48043 14.1054 1.73478 14 2 14L4.496 14C3.13742 13.2745 2.00149 12.1935 1.2096 10.8725C0.417704 9.5515 -0.000386506 8.04017 2.68108e-07 6.5L2.68108e-07 2C2.68108e-07 1.46957 0.210714 0.960859 0.585787 0.585786C0.960859 0.210714 1.46957 8.88178e-16 2 0L15 0ZM15 2L2 2L2 6.5L2.004 6.733C2.06309 8.41639 2.77335 10.0111 3.98514 11.1811C5.19692 12.3511 6.81557 13.005 8.5 13.005C10.1844 13.005 11.8031 12.3511 13.0149 11.1811C14.2266 10.0111 14.9369 8.41639 14.996 6.733L15 6.5L15 2ZM17 6.085L17 6.5C17 7.368 16.87 8.206 16.628 8.995C16.9577 8.96702 17.269 8.83079 17.5132 8.60751C17.7575 8.38424 17.921 8.08646 17.9784 7.76055C18.0358 7.43464 17.9839 7.09889 17.8306 6.80561C17.6773 6.51232 17.4313 6.27795 17.131 6.139L17 6.085Z" fill="rgb(236,209,188)" fill-rule="nonzero" />
</svg>
