<svg viewBox="0 0 16 16" xmlns="http://www.w3.org/2000/svg" xmlns:xlink="http://www.w3.org/1999/xlink" width="16.000000" height="16.000000" fill="none" customFrame="#000000">
	<path id="Vector" d="M3.5 7C2.53333 7 1.70833 6.65833 1.025 5.975C0.341667 5.29167 8.88178e-16 4.46667 0 3.5C-4.44089e-16 2.53333 0.341667 1.70833 1.025 1.025C1.70833 0.341667 2.53333 0 3.5 0C4.46667 0 5.29167 0.341667 5.975 1.025C6.65833 1.70833 7 2.53333 7 3.5C7 4.46667 6.65833 5.29167 5.975 5.975C5.29167 6.65833 4.46667 7 3.5 7ZM3.5 5C3.91667 5 4.271 4.85433 4.563 4.563C4.855 4.27167 5.00067 3.91733 5 3.5C4.99933 3.08267 4.85367 2.72867 4.563 2.438C4.27233 2.14733 3.918 2.00133 3.5 2C3.082 1.99867 2.728 2.14467 2.438 2.438C2.148 2.73133 2.002 3.08533 2 3.5C1.998 3.91467 2.144 4.269 2.438 4.563C2.732 4.857 3.086 5.00267 3.5 5ZM12.5 16C11.5333 16 10.7083 15.6583 10.025 14.975C9.34167 14.2917 9 13.4667 9 12.5C9 11.5333 9.34167 10.7083 10.025 10.025C10.7083 9.34167 11.5333 9 12.5 9C13.4667 9 14.2917 9.34167 14.975 10.025C15.6583 10.7083 16 11.5333 16 12.5C16 13.4667 15.6583 14.2917 14.975 14.975C14.2917 15.6583 13.4667 16 12.5 16ZM12.5 14C12.9167 14 13.271 13.8543 13.563 13.563C13.855 13.2717 14.0007 12.9173 14 12.5C13.9993 12.0827 13.8537 11.7287 13.563 11.438C13.2723 11.1473 12.918 11.0013 12.5 11C12.082 10.9987 11.728 11.1447 11.438 11.438C11.148 11.7313 11.002 12.0853 11 12.5C10.998 12.9147 11.144 13.269 11.438 13.563C11.732 13.857 12.086 14.0027 12.5 14ZM0.7 15.3C0.516666 15.1167 0.425 14.8833 0.425 14.6C0.425 14.3167 0.516666 14.0833 0.7 13.9L13.9 0.7C14.0833 0.516666 14.3167 0.425 14.6 0.425C14.8833 0.425 15.1167 0.516666 15.3 0.7C15.4833 0.883333 15.575 1.11667 15.575 1.4C15.575 1.68333 15.4833 1.91667 15.3 2.1L2.1 15.3C1.91667 15.4833 1.68333 15.575 1.4 15.575C1.11667 15.575 0.883333 15.4833 0.7 15.3Z" fill="rgb(236,209,188)" fill-rule="nonzero" />
</svg>
