<svg viewBox="0 0 19.8962 18.4375" xmlns="http://www.w3.org/2000/svg" xmlns:xlink="http://www.w3.org/1999/xlink" width="19.896240" height="18.437500" fill="none" customFrame="#000000">
	<path id="Vector" d="M8.41319 0.719429C8.59215 0.504732 8.81413 0.329929 9.06481 0.206295C9.31548 0.0826622 9.58928 0.0129439 9.86856 0.0016372C10.1478 -0.00966951 10.4264 0.0376864 10.6862 0.140651C10.9461 0.243615 11.1815 0.399901 11.3772 0.599429L11.4852 0.719429L15.4182 5.43743L18.4032 5.43743C18.6131 5.43698 18.8206 5.48087 19.0124 5.56622C19.2041 5.65158 19.3756 5.77646 19.5157 5.93271C19.6558 6.08895 19.7613 6.27303 19.8253 6.47288C19.8894 6.67274 19.9104 6.88386 19.8872 7.09243L19.7952 7.85843L19.6952 8.59843L19.6132 9.15243L19.5182 9.74743L19.4102 10.3724L19.2882 11.0204L19.1522 11.6814C19.0802 12.0148 19.0029 12.3478 18.9202 12.6804C18.6988 13.5585 18.4209 14.4213 18.0882 15.2634L17.8672 15.8034L17.6532 16.2914L17.4512 16.7254L17.3572 16.9194L17.1082 17.4094C16.7882 18.0194 16.1842 18.3794 15.5452 18.4314L15.3852 18.4374L4.50419 18.4374C4.15459 18.44 3.81085 18.3477 3.50967 18.1701C3.20849 17.9926 2.9612 17.7366 2.79419 17.4294L2.56219 16.9794L2.38219 16.6094L2.28719 16.4044L2.08719 15.9554C1.63049 14.895 1.25996 13.7994 0.979191 12.6794C0.924902 12.462 0.8729 12.244 0.823191 12.0254L0.681191 11.3774L0.554191 10.7434L0.442191 10.1304L0.342191 9.54343L0.255191 8.98943L0.181191 8.47643L0.0911911 7.79343L0.0251912 7.23743L0.0081912 7.08443C-0.0124944 6.88797 0.00609385 6.68935 0.0628744 6.50014C0.119655 6.31093 0.213494 6.1349 0.338933 5.98229C0.464372 5.82968 0.618906 5.70353 0.793545 5.6112C0.968184 5.51886 1.15944 5.46217 1.35619 5.44443L1.49219 5.43743L4.48119 5.43743L8.41319 0.719429ZM17.8322 7.43743L2.06219 7.43743L2.12419 7.92143L2.20019 8.46943L2.29219 9.07343L2.40019 9.72143C2.44019 9.94343 2.48219 10.1708 2.52619 10.4034L2.66919 11.1104C2.74519 11.4684 2.82919 11.8324 2.91919 12.1944C3.17297 13.2052 3.50737 14.1941 3.91919 15.1514L4.11519 15.5924L4.29719 15.9764L4.46019 16.2994L4.53219 16.4374L15.3592 16.4374L15.5132 16.1344L15.6902 15.7694L15.8842 15.3464C16.2512 14.5214 16.6712 13.4284 16.9792 12.1944C17.1042 11.6944 17.2152 11.1864 17.3142 10.6874L17.4542 9.94943L17.5742 9.24043L17.6272 8.90143L17.7222 8.26443L17.7992 7.69443L17.8322 7.43743ZM7.93519 10.2734L8.43519 13.2734C8.4701 13.5311 8.4033 13.7922 8.24893 14.0014C8.09457 14.2106 7.8648 14.3515 7.60832 14.3942C7.35185 14.4368 7.08884 14.3779 6.87507 14.2299C6.66129 14.0819 6.51356 13.8565 6.46319 13.6014L5.96319 10.6014C5.93726 10.4701 5.93796 10.3349 5.96524 10.2039C5.99253 10.0728 6.04585 9.94858 6.12204 9.83852C6.19822 9.72846 6.29573 9.63482 6.40879 9.56314C6.52184 9.49147 6.64813 9.44322 6.78017 9.42126C6.91222 9.39929 7.04733 9.40407 7.17749 9.43529C7.30766 9.46651 7.43023 9.52355 7.53795 9.60302C7.64566 9.68249 7.73632 9.78278 7.80456 9.89794C7.8728 10.0131 7.91722 10.1408 7.93519 10.2734ZM12.9972 9.43743L13.1132 9.45043C13.3552 9.49037 13.5741 9.61789 13.7283 9.80873C13.8824 9.99957 13.9611 10.2404 13.9492 10.4854L13.9362 10.6014L13.4362 13.6014C13.3938 13.8525 13.2571 14.078 13.0542 14.2319C12.8512 14.3857 12.5972 14.4563 12.344 14.4292C12.0907 14.4022 11.8574 14.2795 11.6914 14.0863C11.5255 13.8931 11.4396 13.6438 11.4512 13.3894L11.4642 13.2734L11.9642 10.2734C12.0041 10.0317 12.1313 9.81312 12.3217 9.65902C12.5122 9.50492 12.7525 9.42607 12.9972 9.43743ZM9.94919 1.99943L7.08419 5.43743L12.8142 5.43743L9.94919 1.99943Z" fill="rgb(236,209,188)" fill-rule="nonzero" />
</svg>
